<?xml version="1.0" encoding="utf-8"?>
<!-- Generator: Adobe Illustrator 19.2.1, SVG Export Plug-In . SVG Version: 6.00 Build 0)  -->
<svg version="1.1" id="Layer_1" xmlns="http://www.w3.org/2000/svg" xmlns:xlink="http://www.w3.org/1999/xlink" x="0px" y="0px"
	 width="370px" height="110px" viewBox="0 0 370 110" style="enable-background:new 0 0 370 110;" xml:space="preserve">
<style type="text/css">
	.st0{fill:#fff;}
</style>
<g>
	<path class="st0" d="M123.978,107.289c-23.13,0-41.948-18.818-41.948-41.948s18.818-41.947,41.948-41.947
		c23.13,0,41.948,18.817,41.948,41.947S147.108,107.289,123.978,107.289 M123.978,49.611c-8.674,0-15.73,7.057-15.73,15.73
		c0,8.674,7.056,15.731,15.73,15.731c8.674,0,15.73-7.057,15.73-15.731C139.708,56.668,132.652,49.611,123.978,49.611"/>
	<path class="st0" d="M46.845,46.564H30.094v-5.768c0-6.361,5.175-11.536,11.536-11.536c1.878,0,3.646,0.461,5.215,1.261V3.412
		C45.139,3.175,43.4,3.043,41.63,3.043c-20.817,0-37.753,16.936-37.753,37.753v65.543c21.17,0,25.424-13.259,26.217-20.04V72.781
		h16.785V61.617h-0.034V46.564z"/>
	<path class="st0" d="M327.664,39.065c1.063-4.725-5.55-7.601-8.781-8.708h-25.645v26.217h18.795
		C317.069,52.277,326.64,43.622,327.664,39.065"/>
	<path class="st0" d="M318.584,97.997c-1.224-4.817,4.369-10.171,4.369-10.171l12.017-10.733c0.349-0.314,0.699-0.626,1.051-0.94
		l3.711-3.315l0.018,0.04c2.662-2.304,5.29-4.497,7.709-6.39c10.699-8.372,11.324-16.492,9.964-21.829
		c-2.202-8.639-10.466-12.96-17.465-14.124l-1.068-0.178h-16.85c5.317,1.181,9.04,4.261,9.994,7.998
		c1.224,4.794-4.37,10.121-4.37,10.121l-9.11,8.098h0.027c-8.935,7.949-17.147,15.925-19.318,18.048
		c-1.981,1.623-5.162,4.794-6.599,9.312c-1.671,5.255-0.811,10.755,2.358,15.089c2.01,2.749,6.77,7.361,16.052,7.361h19.473
		C324.183,105.59,319.651,102.202,318.584,97.997"/>
	<path class="st0" d="M344.405,80.167h-6.375c-5.153,4.455-14.088,12.701-15.076,17.116c-1.204,5.38,7.44,8.374,9.862,9.101h33.307
		C366.123,86.344,350.392,81.344,344.405,80.167"/>
	<path class="st0" d="M249.831,62.543l-0.01,8.278c0,5.687-4.626,10.313-10.312,10.313c-5.687,0-10.314-4.626-10.314-10.313V31.62
		h-1.092h-24.908h-1.092v39.201c0,5.687-4.626,10.313-10.313,10.313s-10.313-4.626-10.313-10.313V59.706l-0.01-0.503
		c-0.463-11.947-9.472-29.215-31.995-32.066c12.322,8.25,20.454,22.294,20.454,38.204c0,9.64-2.991,18.591-8.083,25.987
		c6.55,9.536,17.529,15.806,29.947,15.806c9.127,0,17.473-3.393,23.859-8.973c6.387,5.58,14.732,8.973,23.86,8.973
		c20.022,0,36.312-16.29,36.312-36.313v-7.323c0.062-0.303,0.422-1.889,1.341-3.279c1.822-2.759,5.619-4.157,11.286-4.157V30.061
		C261.039,30.061,250.337,49.486,249.831,62.543"/>
	<path class="st0" d="M79.189,75.552c-1.022-2.57-1.229-5.788-1.121-7.417l0.035-0.273c-0.045-0.835-0.072-1.675-0.072-2.521
		c0-0.944,0.037-1.88,0.094-2.81V2.711H51.672v63.695c-0.249,3.854-0.462,18.465,9.332,29.215
		c4.472,4.909,12.711,10.759,26.567,10.759h15.783C91.289,100.291,82.264,89.045,79.189,75.552"/>
</g>
</svg>
